<?xml version="1.0" ?><svg enable-background="new 0 0 512 512" id="Layer_1" version="1.1" viewBox="0 0 512 512" xml:space="preserve" xmlns="http://www.w3.org/2000/svg" xmlns:xlink="http://www.w3.org/1999/xlink"><g><g><linearGradient gradientUnits="userSpaceOnUse" id="SVGID_1_" x1="-0.0000027" x2="512" y1="256" y2="256"><stop offset="0" style="stop-color:#F67950"/><stop offset="1" style="stop-color:#F15A29"/></linearGradient><circle cx="256" cy="256" fill="url(#SVGID_1_)" r="256"/><linearGradient gradientUnits="userSpaceOnUse" id="SVGID_2_" x1="42.6666641" x2="469.3333435" y1="256.0005188" y2="256.0005188"><stop offset="0" style="stop-color:#F15A29"/><stop offset="1" style="stop-color:#F67950"/></linearGradient><path d="M256,469.3338623c-117.6314697,0-213.3333435-95.7023926-213.3333435-213.3333435    c0-117.6314545,95.7018661-213.333313,213.3333435-213.333313c117.636261,0,213.3333435,95.7018661,213.3333435,213.333313    C469.3333435,373.6314697,373.636261,469.3338623,256,469.3338623z" fill="url(#SVGID_2_)"/></g><path d="M264,144.0005341c-66.2741852,0-119.9994659,53.7253265-119.9994659,119.9994659   c0,66.2735901,53.7252808,119.9994812,119.9994659,119.9994812c66.2735901,0,119.9994812-53.7258911,119.9994812-119.9994812   C383.9994812,197.7258606,330.2735901,144.0005341,264,144.0005341z M333.1679993,268.9994812h-64.1695557v64.1669312h-9.999939   v-64.1669312h-64.1646881v-10h64.1646881v-64.1674805h9.999939v64.1674805h64.1695557V268.9994812z" opacity="0.3"/><path d="M256,136.0005341c-66.2741852,0-119.9994659,53.7253265-119.9994659,119.9994659   c0,66.2735901,53.7252808,119.9994812,119.9994659,119.9994812c66.2735901,0,119.9994812-53.7258911,119.9994812-119.9994812   C375.9994812,189.7258606,322.2735901,136.0005341,256,136.0005341z M325.1679993,260.9994812h-64.1695557v64.1669312h-9.999939   v-64.1669312h-64.1649017v-10.0000153h64.1649017v-64.1674652h9.999939v64.1674652h64.1695557V260.9994812z" fill="#FFFFFF"/></g></svg>